<?xml version="1.0" encoding="UTF-8" standalone="no"?>
<!-- Created with Inkscape (http://www.inkscape.org/) -->

<svg
   xmlns:dc="http://purl.org/dc/elements/1.1/"
   xmlns:cc="http://creativecommons.org/ns#"
   xmlns:rdf="http://www.w3.org/1999/02/22-rdf-syntax-ns#"
   xmlns:svg="http://www.w3.org/2000/svg"
   xmlns="http://www.w3.org/2000/svg"
   xmlns:sodipodi="http://sodipodi.sourceforge.net/DTD/sodipodi-0.dtd"
   xmlns:inkscape="http://www.inkscape.org/namespaces/inkscape"
   width="500"
   height="350"
   viewBox="0 0 132.29167 92.604167"
   version="1.1"
   id="svg8"
   sodipodi:docname="streamer.svg"
   inkscape:version="0.92.3 (2405546, 2018-03-11)">
  <defs
     id="defs2">
    <inkscape:path-effect
       effect="bspline"
       id="path-effect1007"
       is_visible="true"
       weight="33.333333"
       steps="2"
       helper_size="0"
       apply_no_weight="true"
       apply_with_weight="true"
       only_selected="false" />
  </defs>
  <sodipodi:namedview
     id="base"
     pagecolor="#ffffff"
     bordercolor="#666666"
     borderopacity="1.0"
     inkscape:pageopacity="0.0"
     inkscape:pageshadow="2"
     inkscape:zoom="0.98994949"
     inkscape:cx="506.04267"
     inkscape:cy="188.67973"
     inkscape:document-units="mm"
     inkscape:current-layer="layer2"
     showgrid="false"
     units="px"
     inkscape:window-width="1877"
     inkscape:window-height="1081"
     inkscape:window-x="1210"
     inkscape:window-y="935"
     inkscape:window-maximized="0"
     inkscape:lockguides="true" />
  <metadata
     id="metadata5">
    <rdf:RDF>
      <cc:Work
         rdf:about="">
        <dc:format>image/svg+xml</dc:format>
        <dc:type
           rdf:resource="http://purl.org/dc/dcmitype/StillImage" />
        <dc:title></dc:title>
      </cc:Work>
    </rdf:RDF>
  </metadata>
  <g
     inkscape:groupmode="layer"
     id="layer2"
     inkscape:label="Layer 2"
     style="display:inline"
     transform="translate(0,-66.14583)">
    <circle
       style="opacity:1;fill:none;fill-opacity:1;stroke:#808080;stroke-width:0.72841591;stroke-linejoin:round;stroke-miterlimit:4;stroke-dasharray:none;stroke-opacity:1"
       id="path984-4-2"
       cx="20.254959"
       cy="104.95045"
       r="13.899172" />
    <circle
       style="opacity:1;fill:#808080;fill-opacity:1;stroke:none;stroke-width:0.72818643;stroke-linejoin:round;stroke-miterlimit:4;stroke-dasharray:none;stroke-opacity:1"
       id="path2172-6"
       cx="85.770416"
       cy="123.64905"
       r="7.2661352"
       inkscape:label="btnX"
       class="theme-button"
       ojd-button="X" />
    <circle
       style="opacity:1;fill:#808080;fill-opacity:1;stroke:none;stroke-width:0.72818643;stroke-linejoin:round;stroke-miterlimit:4;stroke-dasharray:none;stroke-opacity:1"
       id="path2172-9-8"
       cx="102.69404"
       cy="140.29677"
       r="7.2661352"
       inkscape:label="btnA"
       class="theme-button"
       ojd-button="A" />
    <circle
       style="opacity:1;fill:#808080;fill-opacity:1;stroke:none;stroke-width:0.72818643;stroke-linejoin:round;stroke-miterlimit:4;stroke-dasharray:none;stroke-opacity:1"
       id="path2172-9-4-46"
       cx="119.70969"
       cy="124.29289"
       r="7.2661352"
       inkscape:label="btnB"
       class="theme-button"
       ojd-button="B" />
    <circle
       style="opacity:1;fill:#808080;fill-opacity:1;stroke:none;stroke-width:0.72818643;stroke-linejoin:round;stroke-miterlimit:4;stroke-dasharray:none;stroke-opacity:1"
       id="path2172-9-4-4-6"
       cx="102.96999"
       cy="107.92109"
       r="7.2661352"
       inkscape:label="btnY"
       class="theme-button"
       ojd-button="Y" />
    <g
       aria-label="Y"
       style="font-style:normal;font-weight:normal;font-size:7.53998423px;line-height:1.25;font-family:sans-serif;letter-spacing:0px;word-spacing:0px;fill:#ffffff;fill-opacity:1;stroke:none;stroke-width:0.1884996"
       id="text2344"
       transform="matrix(1.376534,0,0,1.376534,-292.65509,15.250967)"
       inkscape:label="lblY"
       class="theme-label-contrast"
       ojd-button="Y">
      <path
         d="m 285.08909,64.573009 h 0.79892 l 1.52419,2.260523 1.51316,-2.260523 h 0.79891 l -1.9439,2.879037 v 2.617641 H 287.033 v -2.617641 z"
         style="fill:#ffffff;stroke-width:0.1884996"
         id="path2406"
         inkscape:connector-curvature="0" />
    </g>
    <g
       aria-label="X"
       style="font-style:normal;font-weight:normal;font-size:7.53998423px;line-height:1.25;font-family:sans-serif;letter-spacing:0px;word-spacing:0px;fill:#ffffff;fill-opacity:1;stroke:none;stroke-width:0.1884996"
       id="text2344-0"
       transform="matrix(1.376534,0,0,1.376534,-293.18198,15.771883)"
       inkscape:label="lblX"
       class="theme-label-contrast"
       ojd-button="X">
      <path
         d="m 273.1924,75.620349 h 0.79891 l 1.36589,2.043307 1.37325,-2.043307 h 0.79891 l -1.76718,2.639731 1.88499,2.856947 h -0.79891 l -1.54629,-2.337837 -1.55733,2.337837 h -0.80259 l 1.96231,-2.934261 z"
         style="fill:#ffffff;stroke-width:0.1884996"
         id="path2409"
         inkscape:connector-curvature="0" />
    </g>
    <g
       aria-label="A"
       style="font-style:normal;font-weight:normal;font-size:7.53998423px;line-height:1.25;font-family:sans-serif;letter-spacing:0px;word-spacing:0px;fill:#ffffff;fill-opacity:1;stroke:none;stroke-width:0.1884996"
       id="text2344-0-6"
       transform="matrix(1.376534,0,0,1.376534,-292.98846,14.399634)"
       inkscape:label="lblA"
       class="theme-label-contrast"
       ojd-button="A">
      <path
         d="m 287.44839,88.914663 -1.00877,2.735453 h 2.02122 z m -0.41971,-0.732645 h 0.8431 l 2.09485,5.496678 h -0.77315 l -0.5007,-1.410066 h -2.47774 l -0.5007,1.410066 h -0.78419 z"
         style="fill:#ffffff;stroke-width:0.1884996"
         id="path2400"
         inkscape:connector-curvature="0" />
    </g>
    <g
       aria-label="B"
       style="font-style:normal;font-weight:normal;font-size:7.53998423px;line-height:1.25;font-family:sans-serif;letter-spacing:0px;word-spacing:0px;fill:#ffffff;fill-opacity:1;stroke:none;stroke-width:0.1884996"
       id="text2344-0-6-5"
       transform="matrix(1.376534,0,0,1.376534,-292.22321,14.116308)"
       inkscape:label="lblB"
       class="theme-label-contrast"
       ojd-button="B">
      <path
         d="m 298.04797,80.162464 v 2.013853 h 1.19285 q 0.6001,0 0.88727,-0.24667 0.29085,-0.250351 0.29085,-0.762098 0,-0.515428 -0.29085,-0.758416 -0.28717,-0.246669 -0.88727,-0.246669 z m 0,-2.260523 v 1.656735 h 1.10081 q 0.54488,0 0.80996,-0.20249 0.26875,-0.206171 0.26875,-0.625878 0,-0.416024 -0.26875,-0.622195 -0.26508,-0.206172 -0.80996,-0.206172 z m -0.74369,-0.611151 h 1.89972 q 0.85046,0 1.31066,0.353437 0.46021,0.353437 0.46021,1.005086 0,0.504383 -0.23563,0.802596 -0.23562,0.298212 -0.69215,0.371844 0.54857,0.117813 0.85046,0.493339 0.30558,0.371845 0.30558,0.931453 0,0.736327 -0.5007,1.137625 -0.50071,0.401298 -1.4248,0.401298 h -1.97335 z"
         style="fill:#ffffff;stroke-width:0.1884996"
         id="path2403"
         inkscape:connector-curvature="0" />
    </g>
    <path
       style="opacity:1;fill:none;fill-opacity:1;stroke:#808080;stroke-width:0.72841585;stroke-linejoin:round;stroke-miterlimit:4;stroke-dasharray:none;stroke-opacity:1"
       d="m 18.199938,126.00541 c -0.968143,0 -1.747771,0.77891 -1.747771,1.74705 v 7.77215 H 8.6807368 c -0.9681438,0 -1.7477714,0.77962 -1.7477714,1.74777 v 4.32284 c 0,0.96813 0.7796276,1.74777 1.7477714,1.74777 h 7.7714302 v 7.77143 c 0,0.96813 0.779628,1.74776 1.747771,1.74776 h 4.322826 c 0.968144,0 1.747772,-0.77963 1.747772,-1.74776 v -7.77143 h 7.772145 c 0.968143,0 1.747055,-0.77964 1.747055,-1.74777 v -4.32284 c 0,-0.96815 -0.778912,-1.74777 -1.747055,-1.74777 h -7.772145 v -7.77215 c 0,-0.96814 -0.779628,-1.74705 -1.747772,-1.74705 z"
       id="rect2146-2"
       inkscape:connector-curvature="0" />
    <path
       sodipodi:type="star"
       style="opacity:1;fill:#808080;fill-opacity:1;stroke:none;stroke-width:0.46181566;stroke-linejoin:round;stroke-miterlimit:4;stroke-dasharray:none;stroke-opacity:1"
       id="path2532"
       sodipodi:sides="3"
       sodipodi:cx="20.361471"
       sodipodi:cy="130.96784"
       sodipodi:r1="3.3574536"
       sodipodi:r2="1.6787267"
       sodipodi:arg1="0.52359878"
       sodipodi:arg2="1.5707963"
       inkscape:flatsided="true"
       inkscape:rounded="0"
       inkscape:randomized="0"
       d="m 23.269111,132.64656 -5.81528,0 2.90764,-5.03618 z"
       inkscape:transform-center-x="4.185905e-06"
       inkscape:transform-center-y="-0.83935392"
       inkscape:label="btnUp"
       class="theme-button"
       ojd-button="UP" />
    <path
       sodipodi:type="star"
       style="opacity:1;fill:#808080;fill-opacity:1;stroke:none;stroke-width:0.33549166;stroke-linejoin:round;stroke-miterlimit:4;stroke-dasharray:none;stroke-opacity:1"
       id="path2532-6"
       sodipodi:sides="3"
       sodipodi:cx="201.00919"
       sodipodi:cy="98.462799"
       sodipodi:r1="2.4390633"
       sodipodi:r2="1.2195317"
       sodipodi:arg1="0.52359878"
       sodipodi:arg2="1.5707963"
       inkscape:flatsided="true"
       inkscape:rounded="0"
       inkscape:randomized="0"
       d="m 203.12148,99.682331 -4.22459,0 2.1123,-3.658595 z"
       inkscape:transform-center-x="1.0432605e-05"
       inkscape:transform-center-y="-0.83935565"
       transform="matrix(0,1.376534,-1.376534,0,164.36479,-137.26226)"
       inkscape:label="btnRight"
       class="theme-button"
       ojd-button="RIGHT" />
    <path
       sodipodi:type="star"
       style="opacity:1;fill:#808080;fill-opacity:1;stroke:none;stroke-width:0.33549166;stroke-linejoin:round;stroke-miterlimit:4;stroke-dasharray:none;stroke-opacity:1"
       id="path2532-6-5"
       sodipodi:sides="3"
       sodipodi:cx="201.00919"
       sodipodi:cy="98.462799"
       sodipodi:r1="2.4390633"
       sodipodi:r2="1.2195317"
       sodipodi:arg1="0.52359878"
       sodipodi:arg2="1.5707963"
       inkscape:flatsided="true"
       inkscape:rounded="0"
       inkscape:randomized="0"
       d="m 203.12148,99.682331 -4.22459,0 2.1123,-3.658595 z"
       inkscape:transform-center-x="-2.1401309e-06"
       inkscape:transform-center-y="-0.83936929"
       transform="matrix(0,-1.376534,1.376534,0,-123.64185,416.12964)"
       inkscape:label="btnLeft"
       class="theme-button"
       ojd-button="LEFT" />
    <path
       sodipodi:type="star"
       style="opacity:1;fill:#808080;fill-opacity:1;stroke:none;stroke-width:0.46181566;stroke-linejoin:round;stroke-miterlimit:4;stroke-dasharray:none;stroke-opacity:1"
       id="path2532-6-3"
       sodipodi:sides="3"
       sodipodi:cx="-20.361471"
       sodipodi:cy="-147.89965"
       sodipodi:r1="3.3574536"
       sodipodi:r2="1.6787267"
       sodipodi:arg1="0.52359878"
       sodipodi:arg2="1.5707963"
       inkscape:flatsided="true"
       inkscape:rounded="0"
       inkscape:randomized="0"
       d="m -17.453831,-146.22092 -5.81528,0 2.90764,-5.03618 z"
       inkscape:transform-center-x="4.185905e-06"
       inkscape:transform-center-y="-0.83935838"
       transform="scale(-1)"
       inkscape:label="btnDown"
       class="theme-button"
       ojd-button="DOWN" />
    <path
       style="display:inline;fill:#808080;stroke:none;stroke-width:0.36420792px;stroke-linecap:butt;stroke-linejoin:miter;stroke-opacity:1"
       d="m 56.441098,109.90701 c -0.333878,0.26112 -3.858246,3.17953 -9.36485,14.25461 0,0 3.813564,2.61901 9.36485,2.57294 5.551272,0.0461 9.364836,-2.57294 9.364836,-2.57294 -5.506604,-11.07508 -9.030971,-13.99349 -9.364836,-14.25461 z"
       id="path2059-6"
       inkscape:connector-curvature="0"
       inkscape:label="btnStart"
       class="theme-button"
       ojd-button="START" />
    <rect
       style="display:inline;opacity:1;fill:#808080;fill-opacity:1;stroke:none;stroke-width:0.97058964;stroke-linejoin:round;stroke-miterlimit:4;stroke-dasharray:none;stroke-opacity:1"
       id="rect1842"
       width="27.731144"
       height="12.247915"
       x="5.6083674"
       y="72.128357"
       ry="4.3907628"
       inkscape:label="btnL"
       class="theme-button"
       ojd-button="L" />
    <rect
       style="display:inline;opacity:1;fill:#808080;fill-opacity:1;stroke:none;stroke-width:0.97058964;stroke-linejoin:round;stroke-miterlimit:4;stroke-dasharray:none;stroke-opacity:1"
       id="rect1842-4"
       width="27.731144"
       height="12.247915"
       x="99.629158"
       y="72.128357"
       ry="4.3907628"
       inkscape:label="btnR1"
       class="theme-button"
       ojd-button="R" />
    <g
       aria-label="L1"
       style="font-style:normal;font-weight:normal;font-size:5.35760832px;line-height:1.25;font-family:sans-serif;letter-spacing:0px;word-spacing:0px;display:inline;opacity:1;fill:#ffffff;fill-opacity:1;stroke:none;stroke-width:0.1339402"
       id="text1573"
       transform="matrix(1.7468431,0,0,1.7468431,-57.491782,51.955832)"
       inkscape:label="lblL1"
       class="theme-label-contrast"
       ojd-button="L">
      <path
         d="m 42.844755,13.100953 h 0.528436 v 3.460994 h 1.901847 v 0.444723 h -2.430283 z"
         style="fill:#ffffff;stroke-width:0.1339402"
         id="path1677"
         inkscape:connector-curvature="0" />
    </g>
    <g
       aria-label="R1"
       style="font-style:normal;font-weight:normal;font-size:5.3576088px;line-height:1.25;font-family:sans-serif;letter-spacing:0px;word-spacing:0px;display:inline;opacity:1;fill:#ffffff;fill-opacity:1;stroke:none;stroke-width:0.1339402"
       id="text1573-3"
       transform="matrix(1.7468431,0,0,1.7468431,-15.503034,51.955832)"
       inkscape:label="lblR1"
       class="theme-label-contrast"
       ojd-button="R">
      <path
         d="m 74.177126,15.175456 q 0.170041,0.05755 0.329618,0.245906 0.162194,0.188353 0.324387,0.517972 l 0.536284,1.067336 h -0.567676 l -0.49966,-1.001936 Q 74.106493,15.612331 73.923372,15.484146 73.742867,15.355961 73.428944,15.355961 H 72.85342 v 1.650709 h -0.528436 v -3.905718 h 1.192905 q 0.669701,0 0.99932,0.279914 0.329618,0.279915 0.329618,0.844975 0,0.368859 -0.172657,0.612148 -0.170042,0.24329 -0.497044,0.337467 z M 72.85342,13.535212 v 1.38649 h 0.664469 q 0.381939,0 0.575524,-0.175273 0.196202,-0.17789 0.196202,-0.520588 0,-0.342699 -0.196202,-0.515356 -0.193585,-0.175273 -0.575524,-0.175273 z"
         style="fill:#ffffff;stroke-width:0.1339402"
         id="path1672"
         inkscape:connector-curvature="0" />
    </g>
  </g>
</svg>
