<?xml version="1.0" encoding="UTF-8" standalone="no"?>
<!-- Created with Inkscape (http://www.inkscape.org/) -->

<svg
   xmlns:dc="http://purl.org/dc/elements/1.1/"
   xmlns:cc="http://creativecommons.org/ns#"
   xmlns:rdf="http://www.w3.org/1999/02/22-rdf-syntax-ns#"
   xmlns:svg="http://www.w3.org/2000/svg"
   xmlns="http://www.w3.org/2000/svg"
   xmlns:sodipodi="http://sodipodi.sourceforge.net/DTD/sodipodi-0.dtd"
   xmlns:inkscape="http://www.inkscape.org/namespaces/inkscape"
   width="500"
   height="500"
   viewBox="0 0 132.29167 132.29167"
   version="1.1"
   id="svg1760"
   sodipodi:docname="n64.svg"
   inkscape:version="0.92.3 (2405546, 2018-03-11)">
  <defs
     id="defs1754" />
  <sodipodi:namedview
     id="base"
     pagecolor="#ffffff"
     bordercolor="#666666"
     borderopacity="1.0"
     inkscape:pageopacity="0.0"
     inkscape:pageshadow="2"
     inkscape:zoom="1.4142136"
     inkscape:cx="311.40666"
     inkscape:cy="228.31099"
     inkscape:document-units="mm"
     inkscape:current-layer="g2844"
     showgrid="false"
     units="px"
     showguides="true"
     inkscape:guide-bbox="true"
     inkscape:window-width="1443"
     inkscape:window-height="982"
     inkscape:window-x="1396"
     inkscape:window-y="863"
     inkscape:window-maximized="0" />
  <metadata
     id="metadata1757">
    <rdf:RDF>
      <cc:Work
         rdf:about="">
        <dc:format>image/svg+xml</dc:format>
        <dc:type
           rdf:resource="http://purl.org/dc/dcmitype/StillImage" />
        <dc:title />
      </cc:Work>
    </rdf:RDF>
  </metadata>
  <g
     inkscape:groupmode="layer"
     id="layer2"
     inkscape:label="Layer 2"
     style="display:inline"
     transform="translate(0,-26.458333)">
    <path
       style="display:inline;fill:#b3b3b3;stroke:none;stroke-width:0.35218388px;stroke-linecap:butt;stroke-linejoin:miter;stroke-opacity:1"
       d="m 4.2551212,67.454504 c 0,0 -7.5467981,35.721586 -0.2515599,57.858856 C 16.934232,149.92673 22.762637,93.934774 28.907996,90.094908 35.951674,86.573062 25.637716,76.259101 25.637716,76.259101 Z"
       id="path918"
       inkscape:connector-curvature="0"
       sodipodi:nodetypes="ccccc"
       inkscape:label="colorLight"
       class="theme-color-light" />
    <path
       style="display:inline;fill:#808080;stroke:none;stroke-width:0.35218388px;stroke-linecap:butt;stroke-linejoin:miter;stroke-opacity:1"
       d="m 3.5803312,71.051812 c -0.3863064,2.21616 -0.2732831,1.296772 -0.7410964,5.02365 3.7939857,6.230168 5.755027,12.654024 24.8910282,15.360943 0.360186,-0.675142 0.19577,-0.578286 1.006455,-1.211879 C 12.998221,89.297893 5.4190977,82.541527 3.5803312,71.051812 Z"
       id="path918-29"
       inkscape:connector-curvature="0"
       sodipodi:nodetypes="ccccc"
       inkscape:label="colorDark"
       class="theme-color-dark" />
    <path
       style="display:inline;fill:#b3b3b3;stroke:none;stroke-width:0.35218388px;stroke-linecap:butt;stroke-linejoin:miter;stroke-opacity:1"
       d="m 128.03833,67.454505 c 0,0 7.5468,35.721585 0.25155,57.858855 -12.93067,24.61337 -18.75907,-31.378586 -24.90443,-35.218439 -7.043679,-3.521859 3.27028,-13.835818 3.27028,-13.835818 z"
       id="path918-24"
       inkscape:connector-curvature="0"
       sodipodi:nodetypes="ccccc"
       inkscape:label="colorLight"
       class="theme-color-light" />
    <path
       style="display:inline;fill:#808080;stroke:none;stroke-width:0.35218388px;stroke-linecap:butt;stroke-linejoin:miter;stroke-opacity:1"
       d="m 128.7131,71.051812 c 0.38632,2.216161 0.2733,1.296773 0.74111,5.023651 -3.79399,6.230168 -5.75503,12.654023 -24.89103,15.360942 -0.36018,-0.67513 -0.19577,-0.578286 -1.00645,-1.211879 15.73849,-0.926633 23.31762,-7.682999 25.15637,-19.172714 z"
       id="path918-29-5"
       inkscape:connector-curvature="0"
       sodipodi:nodetypes="ccccc"
       inkscape:label="colorDark"
       class="theme-color-dark" />
    <path
       style="display:inline;fill:#808080;stroke:none;stroke-width:0.35218388px;stroke-linecap:butt;stroke-linejoin:miter;stroke-opacity:1"
       d="m 120.05065,48.674672 v -3.894249 c 0,0 -5.12021,-3.461557 -9.23081,-4.25483 -4.1106,-0.793273 -24.663577,-3.533672 -24.663577,-3.533672 l 1.875006,5.769259 z"
       id="path1892-2"
       inkscape:connector-curvature="0"
       inkscape:label="btnR"
       class="theme-button"
       ojd-button="R" />
    <path
       style="fill:#808080;stroke:none;stroke-width:0.35218388px;stroke-linecap:butt;stroke-linejoin:miter;stroke-opacity:1"
       d="m 11.909698,48.674671 v -3.894249 c 0,0 5.120217,-3.461557 9.230814,-4.25483 4.110597,-0.793273 24.663576,-3.533672 24.663576,-3.533672 l -1.875006,5.769259 z"
       id="path1892"
       inkscape:connector-curvature="0"
       inkscape:label="btnL"
       class="theme-button"
       ojd-button="L" />
    <path
       style="opacity:1;fill:#b3b3b3;stroke:none;stroke-width:0.25392461;stroke-linejoin:round;stroke-miterlimit:4;stroke-dasharray:none"
       d="m 65.590836,28.588199 v 0.0083 c -13.939329,0.165269 -24.062422,4.718743 -24.494664,5.274471 -2.387588,5.513724 -3.710483,6.142979 -9.228318,7.021666 -20.725397,1.05869 -29.099898,13.129451 -29.4438141,24.40456 0.1232455,16.123941 8.5470181,25.183079 29.9707121,25.040833 11.98365,-0.139735 13.903567,3.398617 16.598045,16.776961 1.775979,13.43721 7.548495,36.782 8.584483,39.22515 1.035995,2.44312 3.256063,9.36548 8.288014,10.04412 0.03808,-0.005 0.07505,-0.0133 0.11281,-0.0185 0.03776,0.005 0.07473,0.0134 0.112811,0.0185 5.03195,-0.67864 7.252021,-7.601 8.288018,-10.04412 1.035987,-2.44315 6.808503,-25.78794 8.584481,-39.22515 C 85.657891,93.736619 87.577803,90.198266 99.561452,90.338002 120.98515,90.480248 129.40891,81.42111 129.53217,65.297168 129.18826,54.022057 120.81375,41.951299 100.08835,40.89261 94.57052,40.013921 93.247621,39.384667 90.860032,33.870942 90.427794,33.315215 80.3047,28.76174 66.365367,28.59644 v -0.0083 c -0.130168,0 -0.257729,0.0035 -0.387265,0.0041 -0.129528,-7.05e-4 -0.25709,-0.0041 -0.387266,-0.0041 z"
       id="path2317"
       inkscape:connector-curvature="0"
       inkscape:label="colorLight"
       class="theme-color-light" />
    <circle
       style="display:inline;opacity:1;fill:#999999;fill-opacity:1;stroke:none;stroke-width:0.73371649;stroke-linejoin:round;stroke-miterlimit:4;stroke-dasharray:none;stroke-opacity:1"
       id="path999-9"
       cx="65.937622"
       cy="72.108368"
       r="5.660099"
       inkscape:label="colorDark"
       class="theme-color-dark" />
    <circle
       style="opacity:1;fill:none;fill-opacity:1;stroke:#999999;stroke-width:0.70436788;stroke-linejoin:round;stroke-miterlimit:4;stroke-dasharray:none;stroke-opacity:1"
       id="path999"
       cx="25.838964"
       cy="66.096092"
       r="13.584237"
       inkscape:label="strokeDark"
       class="theme-color-stroke-dark" />
    <circle
       style="opacity:1;fill:#808080;fill-opacity:1;stroke:none;stroke-width:1.76091945;stroke-linejoin:round;stroke-miterlimit:4;stroke-dasharray:none;stroke-opacity:1"
       id="path831"
       cx="65.978104"
       cy="98.20768"
       r="13.772906"
       inkscape:label="colorDark"
       class="theme-color-darks" />
    <path
       sodipodi:type="star"
       style="opacity:1;fill:#4d4d4d;fill-opacity:1;stroke:none;stroke-width:1.32291663;stroke-linejoin:round;stroke-miterlimit:4;stroke-dasharray:none;stroke-opacity:1"
       id="path829"
       sodipodi:sides="8"
       sodipodi:cx="53.861607"
       sodipodi:cy="98.368301"
       sodipodi:r1="5.7478485"
       sodipodi:r2="5.3103194"
       sodipodi:arg1="0.78539816"
       sodipodi:arg2="1.1780972"
       inkscape:flatsided="true"
       inkscape:rounded="0"
       inkscape:randomized="0"
       d="m 57.925949,102.43264 -4.064342,1.68351 -4.064343,-1.68351 -1.683506,-4.064339 1.683506,-4.064342 4.064343,-1.683506 4.064342,1.683506 1.683506,4.064342 z"
       transform="matrix(1.4405037,0,0,1.4186206,-11.609737,-41.339601)"
       inkscape:label="colorDarker"
       class="theme-color-darkers" />
    <circle
       style="display:inline;opacity:1;fill:#000000;fill-opacity:1;stroke:none;stroke-width:1.76091945;stroke-linejoin:round;stroke-miterlimit:4;stroke-dasharray:none;stroke-opacity:1"
       id="path833-4"
       cx="65.937622"
       cy="72.108368"
       r="4.6538587"
       inkscape:label="btnStart" />
    <circle
       style="opacity:1;fill:#aa0000;fill-opacity:1;stroke:none;stroke-width:1.76091945;stroke-linejoin:round;stroke-miterlimit:4;stroke-dasharray:none;stroke-opacity:1"
       id="path833"
       cx="65.937622"
       cy="71.403999"
       r="4.6538587"
       inkscape:label="btnStart"
       class="theme-button"
       ojd-button="START" />
    <circle
       style="display:inline;opacity:1;fill:#000000;fill-opacity:1;stroke:none;stroke-width:2.0226779;stroke-linejoin:round;stroke-miterlimit:4;stroke-dasharray:none;stroke-opacity:1"
       id="path833-6"
       cx="91.533829"
       cy="71.165031"
       r="5.3456488" />
    <circle
       style="display:inline;opacity:1;fill:#000000;fill-opacity:1;stroke:none;stroke-width:2.0226779;stroke-linejoin:round;stroke-miterlimit:4;stroke-dasharray:none;stroke-opacity:1"
       id="path833-6-2"
       cx="100.96732"
       cy="80.598518"
       r="5.3456488" />
    <circle
       style="opacity:1;fill:none;fill-opacity:1;stroke:#999999;stroke-width:0.70436788;stroke-linejoin:round;stroke-miterlimit:4;stroke-dasharray:none;stroke-opacity:1"
       id="path1006"
       cx="110.49516"
       cy="63.712543"
       r="9.527833"
       inkscape:label="strokeDark"
       class="theme-color-stroke-dark" />
    <g
       id="g1065"
       style="fill:#000000"
       transform="matrix(1.3310888,0,0,1.3310888,-5.2538443,-32.666357)">
      <circle
         transform="scale(-1)"
         r="2.7875743"
         cy="-66.476677"
         cx="-86.711914"
         id="path869-8-2-0"
         style="display:inline;opacity:1;fill:#000000;fill-opacity:1;stroke:none;stroke-width:1.32291663;stroke-linejoin:round;stroke-miterlimit:4;stroke-dasharray:none;stroke-opacity:1" />
      <circle
         transform="rotate(90)"
         r="2.7875743"
         cy="-80.583427"
         cx="72.605164"
         id="path869-8-2-9-3"
         style="display:inline;opacity:1;fill:#000000;fill-opacity:1;stroke:none;stroke-width:1.32291663;stroke-linejoin:round;stroke-miterlimit:4;stroke-dasharray:none;stroke-opacity:1" />
      <circle
         r="2.7875743"
         cy="78.73365"
         cx="86.711906"
         id="path869-8-2-1-4"
         style="display:inline;opacity:1;fill:#000000;fill-opacity:1;stroke:none;stroke-width:1.32291663;stroke-linejoin:round;stroke-miterlimit:4;stroke-dasharray:none;stroke-opacity:1" />
      <circle
         transform="rotate(-90)"
         r="2.7875743"
         cy="92.840401"
         cx="-72.605164"
         id="path869-8-0"
         style="display:inline;opacity:1;fill:#000000;fill-opacity:1;stroke:none;stroke-width:1.32291663;stroke-linejoin:round;stroke-miterlimit:4;stroke-dasharray:none;stroke-opacity:1" />
    </g>
    <circle
       style="display:inline;opacity:1;fill:#ffcc00;fill-opacity:1;stroke:none;stroke-width:1.76091945;stroke-linejoin:round;stroke-miterlimit:4;stroke-dasharray:none;stroke-opacity:1"
       id="path869-8-2"
       cx="-110.1674"
       cy="-55.115639"
       r="3.7105088"
       transform="scale(-1)"
       inkscape:label="cUp"
       class="theme-button"
       ojd-button="CUP" />
    <path
       sodipodi:type="star"
       style="opacity:1;fill:#aa8800;fill-opacity:1;stroke:none;stroke-width:1.67715847;stroke-linejoin:round;stroke-miterlimit:4;stroke-dasharray:none;stroke-opacity:1"
       id="path891-4"
       sodipodi:sides="3"
       sodipodi:cx="93.095406"
       sodipodi:cy="72.205269"
       sodipodi:r1="1.7434996"
       sodipodi:r2="0.87174976"
       sodipodi:arg1="0"
       sodipodi:arg2="1.0471976"
       inkscape:flatsided="true"
       inkscape:rounded="0"
       inkscape:randomized="0"
       d="m 94.838905,72.205269 -2.615249,1.509915 v -3.01983 z"
       inkscape:transform-center-x="-0.58018718"
       inkscape:transform-center-y="9.932501e-06"
       transform="matrix(0,-1.3310888,1.3310888,0,14.055789,178.9097)" />
    <circle
       style="display:inline;opacity:1;fill:#ffcc00;fill-opacity:1;stroke:none;stroke-width:1.76091945;stroke-linejoin:round;stroke-miterlimit:4;stroke-dasharray:none;stroke-opacity:1"
       id="path869-8-2-9"
       cx="63.273205"
       cy="-102.00985"
       r="3.7105088"
       transform="rotate(90)"
       inkscape:label="cLeft"
       class="theme-button"
       ojd-button="CLEFT" />
    <path
       sodipodi:type="star"
       style="opacity:1;fill:#aa8800;fill-opacity:1;stroke:none;stroke-width:2.23244691;stroke-linejoin:round;stroke-miterlimit:4;stroke-dasharray:none;stroke-opacity:1"
       id="path891-4-9"
       sodipodi:sides="3"
       sodipodi:cx="-101.88567"
       sodipodi:cy="-63.273205"
       sodipodi:r1="2.3207529"
       sodipodi:r2="1.1603763"
       sodipodi:arg1="0"
       sodipodi:arg2="1.0471976"
       inkscape:flatsided="true"
       inkscape:rounded="0"
       inkscape:randomized="0"
       d="m -99.564921,-63.273205 -3.481129,2.009831 v -4.019662 z"
       inkscape:transform-center-x="-0.58019029"
       transform="scale(-1)"
       inkscape:transform-center-y="1.7182546e-06" />
    <circle
       style="display:inline;opacity:1;fill:#ffcc00;fill-opacity:1;stroke:none;stroke-width:1.76091945;stroke-linejoin:round;stroke-miterlimit:4;stroke-dasharray:none;stroke-opacity:1"
       id="path869-8-2-1"
       cx="110.1674"
       cy="71.430763"
       r="3.7105088"
       inkscape:label="cDown"
       class="theme-button"
       ojd-button="CDOWN" />
    <path
       sodipodi:type="star"
       style="opacity:1;fill:#aa8800;fill-opacity:1;stroke:none;stroke-width:1.67715847;stroke-linejoin:round;stroke-miterlimit:4;stroke-dasharray:none;stroke-opacity:1"
       id="path891-4-1"
       sodipodi:sides="3"
       sodipodi:cx="93.095406"
       sodipodi:cy="72.205269"
       sodipodi:r1="1.7434996"
       sodipodi:r2="0.87174976"
       sodipodi:arg1="0"
       sodipodi:arg2="1.0471976"
       inkscape:flatsided="true"
       inkscape:rounded="0"
       inkscape:randomized="0"
       d="m 94.838905,72.205269 -2.615249,1.509915 v -3.01983 z"
       inkscape:transform-center-x="-0.58018909"
       inkscape:transform-center-y="1.3777819e-06"
       transform="matrix(0,1.3310888,-1.3310888,0,206.27903,-52.363335)" />
    <circle
       style="display:inline;opacity:1;fill:#ffcc00;fill-opacity:1;stroke:none;stroke-width:1.76091945;stroke-linejoin:round;stroke-miterlimit:4;stroke-dasharray:none;stroke-opacity:1"
       id="path869-8"
       cx="-63.273205"
       cy="118.32497"
       r="3.7105088"
       transform="rotate(-90)"
       inkscape:label="cRight"
       class="theme-button"
       ojd-button="CRIGHT" />
    <path
       sodipodi:type="star"
       style="opacity:1;fill:#aa8800;fill-opacity:1;stroke:none;stroke-width:2.23244691;stroke-linejoin:round;stroke-miterlimit:4;stroke-dasharray:none;stroke-opacity:1"
       id="path891"
       sodipodi:sides="3"
       sodipodi:cx="118.44915"
       sodipodi:cy="63.273205"
       sodipodi:r1="2.3207529"
       sodipodi:r2="1.1603763"
       sodipodi:arg1="0"
       sodipodi:arg2="1.0471976"
       inkscape:flatsided="true"
       inkscape:rounded="0"
       inkscape:randomized="0"
       d="m 120.7699,63.273205 -3.48113,2.009831 v -4.019662 z"
       inkscape:transform-center-x="-0.58018647"
       inkscape:transform-center-y="1.7182546e-06" />
    <circle
       style="display:inline;opacity:1;fill:#008000;fill-opacity:1;stroke:none;stroke-width:2.0226779;stroke-linejoin:round;stroke-miterlimit:4;stroke-dasharray:none;stroke-opacity:1"
       id="path833-6-3"
       cx="91.533829"
       cy="70.460655"
       r="5.3456488"
       inkscape:label="btnB"
       class="theme-button"
       ojd-button="B" />
    <circle
       style="display:inline;opacity:1;fill:#0000ff;fill-opacity:1;stroke:none;stroke-width:2.0226779;stroke-linejoin:round;stroke-miterlimit:4;stroke-dasharray:none;stroke-opacity:1"
       id="path833-6-2-9"
       cx="100.96732"
       cy="79.89415"
       r="5.3456488"
       inkscape:label="btnA"
       class="theme-button"
       ojd-button="A" />
    <g
       aria-label="START"
       transform="matrix(1.0696524,0,0,1.6564235,-5.2538443,-32.666357)"
       style="font-style:normal;font-weight:normal;font-size:2.10846877px;line-height:1.25;font-family:sans-serif;letter-spacing:0px;word-spacing:0px;fill:#e6e6e6;fill-opacity:1;stroke:none;stroke-width:0.05271171"
       id="text1087">
      <path
         d="m 64.188677,62.107161 v 0.325331 q -0.126631,-0.05662 -0.247086,-0.08545 -0.120454,-0.02883 -0.227525,-0.02883 -0.142074,0 -0.210023,0.03912 -0.06795,0.03912 -0.06795,0.121484 0,0.06177 0.0453,0.09678 0.04633,0.03397 0.166783,0.05868 l 0.168843,0.03397 q 0.256352,0.05148 0.364452,0.156488 0.1081,0.105012 0.1081,0.298562 0,0.254293 -0.15134,0.378866 -0.150311,0.123543 -0.460198,0.123543 -0.146193,0 -0.293415,-0.0278 -0.147222,-0.0278 -0.294445,-0.08236 v -0.334596 q 0.147223,0.07824 0.28415,0.118395 0.137956,0.03912 0.265617,0.03912 0.129721,0 0.198699,-0.04324 0.06898,-0.04324 0.06898,-0.123543 0,-0.07207 -0.04736,-0.111189 -0.04633,-0.03912 -0.186344,-0.07001 l -0.1534,-0.03398 q -0.230614,-0.04942 -0.337684,-0.157517 -0.106041,-0.1081 -0.106041,-0.291356 0,-0.229584 0.148251,-0.353127 0.148252,-0.123543 0.426224,-0.123543 0.126632,0 0.26047,0.01956 0.133838,0.01853 0.276942,0.05662 z"
         style="font-style:normal;font-variant:normal;font-weight:bold;font-stretch:normal;font-family:sans-serif;-inkscape-font-specification:'sans-serif Bold';fill:#e6e6e6;stroke-width:0.05271171"
         id="path1972"
         inkscape:connector-curvature="0" />
      <path
         d="m 64.455325,62.058774 h 1.416627 v 0.299592 h -0.509615 v 1.23749 h -0.396368 v -1.23749 h -0.510644 z"
         style="font-style:normal;font-variant:normal;font-weight:bold;font-stretch:normal;font-family:sans-serif;-inkscape-font-specification:'sans-serif Bold';fill:#e6e6e6;stroke-width:0.05271171"
         id="path1974"
         inkscape:connector-curvature="0" />
      <path
         d="M 66.843824,63.315825 H 66.22405 l -0.09781,0.280031 h -0.398427 l 0.569328,-1.537082 h 0.472552 l 0.569328,1.537082 H 66.9406 Z m -0.52094,-0.285179 h 0.421076 l -0.210023,-0.611538 z"
         style="font-style:normal;font-variant:normal;font-weight:bold;font-stretch:normal;font-family:sans-serif;-inkscape-font-specification:'sans-serif Bold';fill:#e6e6e6;stroke-width:0.05271171"
         id="path1976"
         inkscape:connector-curvature="0" />
      <path
         d="m 68.104993,62.74032 q 0.124573,0 0.178108,-0.04633 0.05456,-0.04633 0.05456,-0.15237 0,-0.105011 -0.05456,-0.15031 -0.05353,-0.0453 -0.178108,-0.0453 H 67.93821 v 0.394309 z m -0.166783,0.273854 v 0.581682 h -0.396367 v -1.537082 h 0.605361 q 0.30371,0 0.444755,0.101923 0.142075,0.101923 0.142075,0.322241 0,0.15237 -0.07413,0.250175 -0.0731,0.0978 -0.221348,0.144134 0.08133,0.01853 0.145163,0.08442 0.06486,0.06486 0.13075,0.197669 l 0.21517,0.436519 H 68.507534 L 68.32016,63.213901 q -0.05662,-0.115307 -0.115307,-0.157518 -0.05765,-0.04221 -0.154429,-0.04221 z"
         style="font-style:normal;font-variant:normal;font-weight:bold;font-stretch:normal;font-family:sans-serif;-inkscape-font-specification:'sans-serif Bold';fill:#e6e6e6;stroke-width:0.05271171"
         id="path1978"
         inkscape:connector-curvature="0" />
      <path
         d="m 68.886403,62.058774 h 1.416628 v 0.299592 h -0.509615 v 1.23749 h -0.396368 v -1.23749 h -0.510645 z"
         style="font-style:normal;font-variant:normal;font-weight:bold;font-stretch:normal;font-family:sans-serif;-inkscape-font-specification:'sans-serif Bold';fill:#e6e6e6;stroke-width:0.05271171"
         id="path1980"
         inkscape:connector-curvature="0" />
    </g>
    <g
       id="g1827"
       transform="matrix(1.4251645,0,0,1.4251645,-0.88663871,-18.20136)"
       style="fill:#999999"
       inkscape:label="colorDark"
       class="theme-color-dark">
      <path
         sodipodi:nodetypes="ccccccccccccccccccccccccccssscssssccccccssscccccccccccssscccccccccccccscccccssscssscccssscsssccssssscccccccccccccccccccccccccccccccccc"
         d="m 39.493959,46.118798 c -1.630727,-6.14e-4 -2.720365,-1.156202 -2.720365,-2.557402 v 0 c 0,-1.401199 1.092123,-2.570108 2.717879,-2.566518 H 54.85467 c 1.625756,-0.0036 2.71788,1.165319 2.71788,2.566518 v 0 c 0,1.4012 -1.089638,2.55685 -2.720366,2.557402 z m 0.0049,-4.493614 c -1.290992,0.0025 -2.08343,0.865356 -2.08343,1.932897 v 0 c 0,1.067264 0.787466,1.937318 2.08343,1.932622 h 15.348306 c 1.295965,0.0044 2.083706,-0.865358 2.083706,-1.932622 v 0 c 0,-1.067265 -0.792438,-1.930135 -2.08343,-1.932621 z m 7.722691,2.088672 c -0.0011,-0.14059 0.0019,-0.2345 0.04806,-0.3146 0.05662,-0.09888 0.160753,-0.145838 0.255216,-0.14639 h -2.91e-4 c 0.09446,5.53e-4 0.198593,0.0475 0.255216,0.14639 0.04613,0.08037 0.04806,0.174286 0.04695,0.314876 z m 0.602683,0.483638 c 0,0 5.56e-4,0.0071 5.56e-4,0.09722 0,0.293333 -0.193068,0.358517 -0.300237,0.358517 -0.107168,0 -0.303551,-0.06518 -0.303551,-0.358517 0,-0.08783 5.55e-4,-0.331172 5.55e-4,-0.331172 0,0 1.366396,5.55e-4 1.366396,-2.91e-4 0,-0.497449 -0.480324,-0.90955 -1.070302,-0.90955 -0.589979,0 -1.068094,0.403262 -1.068094,0.900712 0,0.497449 0.478115,0.900435 1.068094,0.900435 0.489439,0 0.90292,-0.279245 1.029147,-0.657925 z m 2.282301,-1.116981 c 0.271235,-0.0077 0.82144,0.169867 0.817573,0.804868 -5.56e-4,0.112692 -2.91e-4,0.872814 -2.91e-4,0.872814 h -0.720541 v -1.053454 c 0,-0.139762 -0.133684,-0.295266 -0.331449,-0.295266 -0.197488,0 -0.34443,0.155504 -0.34443,0.295266 0,0.0685 8.2e-4,1.053454 8.2e-4,1.053454 h -0.720072 l 5.56e-4,-1.603935 0.719796,-5.53e-4 c 0,0 -8.2e-4,0.128989 0,0.168762 0.138656,-0.132303 0.338631,-0.235052 0.578101,-0.241957 z m -5.894815,0 c 0.271237,-0.0077 0.821441,0.169867 0.817575,0.804868 -5.56e-4,0.112692 -2.91e-4,0.872814 -2.91e-4,0.872814 h -0.720625 v -1.053454 c 0,-0.139762 -0.133684,-0.295266 -0.331448,-0.295266 -0.197489,0 -0.34443,0.155504 -0.34443,0.295266 0,0.0685 8.2e-4,1.053454 8.2e-4,1.053454 h -0.720072 l -2.91e-4,-1.603935 0.720624,-5.53e-4 c 0,0 -8.21e-4,0.128989 0,0.168762 0.138658,-0.132303 0.338355,-0.235052 0.578102,-0.241957 z m 8.275721,-0.733882 h 0.715929 v 2.412117 h -0.716904 c 0,0 -2.91e-4,-0.07789 -2.91e-4,-0.09281 -0.277588,0.174286 -0.590806,0.174011 -0.834698,0.06021 -0.06546,-0.03039 -0.496068,-0.236986 -0.496068,-0.7952 0,-0.423426 0.399396,-0.885797 0.922256,-0.839947 0.172077,0.01519 0.294437,0.07789 0.410444,0.143076 -5.55e-4,-0.371223 -5.55e-4,-0.887453 -5.55e-4,-0.887453 z m 0.0052,1.602001 v -0.286703 c 0,-0.248034 -0.17125,-0.311286 -0.283942,-0.311286 -0.115454,0 -0.284494,0.06325 -0.284494,0.311286 0,0.08231 2.92e-4,0.285875 2.92e-4,0.285875 0,0 -2.92e-4,0.199974 -2.92e-4,0.285321 0,0.247758 0.16904,0.312667 0.284217,0.312667 0.112969,0 0.284494,-0.0649 0.284494,-0.312667 0,-0.103025 -2.91e-4,-0.284493 -2.91e-4,-0.284493 z m 2.29832,-0.0047 c 0,0 -3.17e-4,0.24251 -3.17e-4,0.339735 0,0.255767 -0.151085,0.361279 -0.29637,0.361279 -0.145561,0 -0.297199,-0.105512 -0.297199,-0.361279 0,-0.09722 2.91e-4,-0.345812 2.91e-4,-0.345812 0,0 5.55e-4,-0.237262 5.55e-4,-0.334486 0,-0.254664 0.151914,-0.359346 0.29637,-0.359346 0.144733,0 0.296371,0.104682 0.296371,0.359346 0,0.09722 -3.17e-4,0.277035 6.09e-4,0.341392 z M 54.499666,43.04516 c -0.585559,0 -1.060082,0.403262 -1.060082,0.900711 0,0.497449 0.4748,0.900712 1.060082,0.900712 0.58556,0 1.060084,-0.403263 1.060084,-0.900712 0,-0.497449 -0.474524,-0.900711 -1.060084,-0.900711 z M 41.78675,42.839115 v -0.49303 h 0.726978 v 0.49303 z m 0.0016,1.91964 v -1.604213 l 0.72532,2.91e-4 v 1.603935 z m 3.639031,0 2.91e-4,-1.600898 h -0.394414 v -0.23809 l 0.3947,-2.91e-4 -5.56e-4,-0.324819 h 0.725873 V 42.9192 h 0.392767 v 0.238643 h -0.392767 l 5.56e-4,1.600897 z m -6.590859,0 2.78e-4,-2.412118 h 0.751558 l 1.039644,1.682102 -5.56e-4,-1.682102 h 0.74576 v 2.412118 H 40.62856 l -1.045168,-1.682103 v 1.682103 z"
         style="opacity:1;fill:#999999;stroke-width:0.04062296"
         id="path29"
         inkscape:connector-curvature="0" />
    </g>
    <g
       aria-label="A"
       transform="matrix(1.1246902,0,0,1.5753648,-5.2538443,-32.666357)"
       style="font-style:normal;font-weight:normal;font-size:3.71510935px;line-height:1.25;font-family:sans-serif;letter-spacing:0px;word-spacing:0px;display:inline;fill:#e6e6e6;fill-opacity:1;stroke:none;stroke-width:0.09287772"
       id="text1087-8">
      <path
         d="m 93.53106,72.684207 h -1.092039 l -0.172332,0.493413 h -0.702025 l 1.003152,-2.708329 h 0.832635 l 1.003152,2.708329 H 93.701578 Z M 92.613167,72.181724 H 93.3551 l -0.370059,-1.077527 z"
         style="font-style:normal;font-variant:normal;font-weight:bold;font-stretch:normal;font-family:sans-serif;-inkscape-font-specification:'sans-serif Bold';fill:#e6e6e6;stroke-width:0.09287772"
         inkscape:connector-curvature="0"
         id="path1983" />
    </g>
    <g
       aria-label="B"
       transform="matrix(1.1246902,0,0,1.5753648,-5.2538443,-32.666357)"
       style="font-style:normal;font-weight:normal;font-size:3.71510935px;line-height:1.25;font-family:sans-serif;letter-spacing:0px;word-spacing:0px;display:inline;fill:#ececec;fill-opacity:1;stroke:none;stroke-width:0.09287772"
       id="text1087-8-6">
      <path
         d="m 84.451415,65.515985 q 0.165076,0 0.250334,-0.07256 0.08526,-0.07256 0.08526,-0.214054 0,-0.139679 -0.08526,-0.21224 -0.08526,-0.07437 -0.250334,-0.07437 h -0.386386 v 0.57323 z m 0.02358,1.184554 q 0.210426,0 0.315639,-0.08889 0.107027,-0.08889 0.107027,-0.268475 0,-0.175959 -0.105213,-0.263032 -0.105213,-0.08889 -0.317453,-0.08889 h -0.409968 v 0.709281 z m 0.649419,-0.974128 q 0.224938,0.0653 0.348291,0.241265 0.123353,0.175959 0.123353,0.431736 0,0.391828 -0.264846,0.584114 -0.264847,0.192286 -0.805424,0.192286 H 83.36663 v -2.708329 h 1.048503 q 0.564159,0 0.816308,0.170517 0.253962,0.170518 0.253962,0.54602 0,0.197728 -0.09252,0.337407 -0.09251,0.137866 -0.268474,0.204984 z"
         style="font-style:normal;font-variant:normal;font-weight:bold;font-stretch:normal;font-family:sans-serif;-inkscape-font-specification:'sans-serif Bold';fill:#ececec;stroke-width:0.09287772"
         inkscape:connector-curvature="0"
         id="path1986" />
    </g>
    <rect
       style="opacity:1;fill:#808080;fill-opacity:1;stroke:none;stroke-width:0.56625646;stroke-linejoin:round;stroke-miterlimit:4;stroke-dasharray:none;stroke-opacity:1"
       id="rect1917"
       width="11.47854"
       height="16.725874"
       x="29.894152"
       y="94.198715"
       ry="3.4675593"
       inkscape:label="btnZ"
       class="theme-button"
       ojd-button="Z" />
    <g
       aria-label="Z"
       style="font-style:normal;font-weight:normal;font-size:5.73477793px;line-height:1.25;font-family:sans-serif;letter-spacing:0px;word-spacing:0px;fill:#4d4d4d;fill-opacity:1;stroke:none;stroke-width:0.14336945"
       id="text1921"
       transform="matrix(1.3310888,0,0,1.3310888,-5.0477021,-32.910978)">
      <path
         d="m 28.805176,99.685474 h 3.514231 v 0.652446 l -2.242948,2.71338 h 2.307352 v 0.81485 h -3.64304 v -0.65244 l 2.242948,-2.71338 h -2.178543 z"
         style="font-style:normal;font-variant:normal;font-weight:bold;font-stretch:normal;font-family:sans-serif;-inkscape-font-specification:'sans-serif Bold';fill:#4d4d4d;stroke-width:0.14336945"
         id="path2008"
         inkscape:connector-curvature="0" />
    </g>
    <g
       id="g2844"
       transform="matrix(1.2004951,0,0,1.2004951,-1.3865509,-23.483834)">
      <path
         inkscape:connector-curvature="0"
         id="rect902"
         d="m 20.405893,66.487951 c -0.285508,0 -0.515755,0.230246 -0.515755,0.515754 v 5.286702 h -5.286701 c -0.285507,0 -0.515307,0.229798 -0.515307,0.515306 v 4.545808 c 0,0.285509 0.2298,0.515306 0.515307,0.515306 h 5.286701 v 5.286701 c 0,0.285509 0.230247,0.515306 0.515755,0.515306 h 4.545809 c 0.285508,0 0.515305,-0.229797 0.515305,-0.515306 v -5.286701 h 5.286702 c 0.285508,0 0.515305,-0.229797 0.515305,-0.515306 v -4.545808 c 0,-0.285508 -0.229797,-0.515306 -0.515305,-0.515306 h -5.286702 v -5.286702 c 0,-0.285508 -0.229797,-0.515754 -0.515305,-0.515754 z"
         style="fill:#000000;stroke:none;stroke-width:0.45924518;stroke-linejoin:round;stroke-miterlimit:4;stroke-dasharray:none" />
      <path
         inkscape:connector-curvature="0"
         id="rect902-1"
         d="m 20.405893,65.569459 c -0.285508,0 -0.515756,0.230247 -0.515756,0.515754 v 5.286703 h -5.2867 c -0.285507,0 -0.515307,0.229796 -0.515307,0.515306 v 4.545807 c 0,0.28551 0.2298,0.515306 0.515307,0.515306 h 5.2867 v 5.286703 c 0,0.285507 0.230248,0.515305 0.515756,0.515305 h 4.545809 c 0.285508,0 0.515304,-0.229798 0.515304,-0.515305 v -5.286703 h 5.286703 c 0.285508,0 0.515305,-0.229796 0.515305,-0.515306 v -4.545807 c 0,-0.28551 -0.229797,-0.515306 -0.515305,-0.515306 h -5.286703 v -5.286703 c 0,-0.285507 -0.229796,-0.515754 -0.515304,-0.515754 z"
         style="fill:#808080;stroke:none;stroke-width:0.45924518;stroke-linejoin:round;stroke-miterlimit:4;stroke-dasharray:none" />
      <path
         ojd-button="DOWN"
         class="theme-button"
         inkscape:label="btnDown"
         inkscape:transform-center-y="0.5801691"
         d="m 20.668787,78.350797 2.009785,0 2.009785,0 -1.004893,1.740524 -1.004892,1.740525 -1.004893,-1.740525 z"
         inkscape:randomized="0"
         inkscape:rounded="0"
         inkscape:flatsided="false"
         sodipodi:arg2="-1.5707963"
         sodipodi:arg1="-2.6179939"
         sodipodi:r2="1.1603498"
         sodipodi:r1="2.3206999"
         sodipodi:cy="79.511147"
         sodipodi:cx="22.678572"
         sodipodi:sides="3"
         id="path1259"
         style="fill:#4d4d4d;stroke:none;stroke-width:0.3312211;stroke-linejoin:round;stroke-miterlimit:4;stroke-dasharray:none"
         sodipodi:type="star" />
      <path
         ojd-button="LEFT"
         class="theme-button"
         inkscape:label="btnLeft"
         inkscape:transform-center-x="1.4454054e-06"
         transform="matrix(0,0.867865,-0.867865,0,50.196285,46.933253)"
         inkscape:transform-center-y="0.58017659"
         d="m 29.056206,36.536343 2.31578,0 2.315781,0 -1.15789,2.005525 -1.157891,2.005525 -1.15789,-2.005525 z"
         inkscape:randomized="0"
         inkscape:rounded="0"
         inkscape:flatsided="false"
         sodipodi:arg2="-1.5707963"
         sodipodi:arg1="-2.6179939"
         sodipodi:r2="1.3370168"
         sodipodi:r1="2.6740334"
         sodipodi:cy="37.87336"
         sodipodi:cx="31.371986"
         sodipodi:sides="3"
         id="path1259-7"
         style="fill:#4d4d4d;stroke:none;stroke-width:0.38165048;stroke-linejoin:round;stroke-miterlimit:4;stroke-dasharray:none"
         sodipodi:type="star" />
      <path
         ojd-button="UP"
         class="theme-button"
         inkscape:label="btnUp"
         transform="scale(-1)"
         inkscape:transform-center-y="0.58017709"
         d="m -24.688357,-69.969005 2.009785,0 2.009785,0 -1.004892,1.740525 -1.004893,1.740525 -1.004892,-1.740525 z"
         inkscape:randomized="0"
         inkscape:rounded="0"
         inkscape:flatsided="false"
         sodipodi:arg2="-1.5707963"
         sodipodi:arg1="-2.6179939"
         sodipodi:r2="1.1603498"
         sodipodi:r1="2.3206999"
         sodipodi:cy="-68.808655"
         sodipodi:cx="-22.678572"
         sodipodi:sides="3"
         id="path1259-6"
         style="fill:#4d4d4d;stroke:none;stroke-width:0.3312211;stroke-linejoin:round;stroke-miterlimit:4;stroke-dasharray:none"
         sodipodi:type="star" />
      <path
         ojd-button="RIGHT"
         class="theme-button"
         inkscape:label="btnRight"
         inkscape:transform-center-x="-1.59608e-06"
         transform="matrix(0,-0.867865,0.867865,0,-4.8391399,101.38654)"
         inkscape:transform-center-y="0.58017263"
         d="m 29.056206,36.536343 2.31578,0 2.315781,0 -1.15789,2.005525 -1.157891,2.005525 -1.15789,-2.005525 z"
         inkscape:randomized="0"
         inkscape:rounded="0"
         inkscape:flatsided="false"
         sodipodi:arg2="-1.5707963"
         sodipodi:arg1="-2.6179939"
         sodipodi:r2="1.3370168"
         sodipodi:r1="2.6740334"
         sodipodi:cy="37.87336"
         sodipodi:cx="31.371986"
         sodipodi:sides="3"
         id="path1259-7-8"
         style="fill:#4d4d4d;stroke:none;stroke-width:0.38165048;stroke-linejoin:round;stroke-miterlimit:4;stroke-dasharray:none"
         sodipodi:type="star" />
    </g>
  </g>
</svg>
