<svg xmlns="http://www.w3.org/2000/svg" width="5099" height="3300" viewBox="0 0 5099 3300">
  <defs>
    <style>
      .cls-1, .cls-2, .cls-3 {
        fill: none;
        stroke: #000;
        stroke-width: 5px;
      }

      .cls-1 {
        fill-rule: evenodd;
      }

      .cls-3 {
        opacity: 0.9;
      }
    </style>
  </defs>
  <path id="lblMA" ojd-btn=1 class="cls-1" d="M838.179,1263.61A148.17,148.17,0,1,1,690,1411.78,148.173,148.173,0,0,1,838.179,1263.61Zm0,0A148.17,148.17,0,1,1,690,1411.78,148.173,148.173,0,0,1,838.179,1263.61Z"/>
  <path id="lblAA" class="cls-1" d="M1130.12,1100.03A148.17,148.17,0,1,1,981.949,1248.2,148.175,148.175,0,0,1,1130.12,1100.03Z"/>
  <path id="lblAB" class="cls-1" d="M1459.82,1130.23a148.17,148.17,0,1,1-148.18,148.17A148.173,148.173,0,0,1,1459.82,1130.23Z"/>
  <circle id="lblAD" class="cls-2" cx="1487.515" cy="943.685" r="148.175"/>
  <ellipse id="lblAC" class="cls-2" cx="1789.515" cy="1306.08" rx="148.175" ry="148.17"/>
  <circle id="lblMB" class="cls-2" cx="1797.065" cy="1884.905" r="148.185"/>
  <path id="lblMC" class="cls-1" d="M2139.34,1736.74a148.17,148.17,0,1,1-148.17,148.17A148.175,148.175,0,0,1,2139.34,1736.74Z"/>
  <circle id="lblMD" class="cls-2" cx="1963.17" cy="2184.39" r="148.17"/>
  <circle id="lblME" class="cls-2" cx="2307.97" cy="2181.875" r="148.19"/>
  <circle id="lblCC" class="cls-3" cx="2781.11" cy="2181.875" r="148.17"/>
  <path id="lblCE" class="cls-1" d="M2947.22,2330.67a148.17,148.17,0,1,1-148.17,148.17A148.175,148.175,0,0,1,2947.22,2330.67Z"/>
  <path id="lblCD" class="cls-1" d="M3125.91,2031.19a148.17,148.17,0,1,1-148.17,148.17A148.175,148.175,0,0,1,3125.91,2031.19Z"/>
  <path id="lblCA" class="cls-1" d="M2944.71,1736.74a148.17,148.17,0,1,1-148.18,148.17A148.173,148.173,0,0,1,2944.71,1736.74Z"/>
  <circle id="lblCB" class="cls-2" cx="3289.515" cy="1882.39" r="148.175"/>
  <circle id="lblKA" class="cls-2" cx="3309.64" cy="1459.595" r="148.17"/>
  <path id="lblKB" class="cls-1" d="M3591.51,1122.68a148.17,148.17,0,1,1-148.17,148.17A148.175,148.175,0,0,1,3591.51,1122.68Z"/>
  <path id="lblKC" class="cls-1" d="M3931.28,1132.75a148.165,148.165,0,1,1-148.18,148.17A148.166,148.166,0,0,1,3931.28,1132.75Z"/>
  <path id="lblKD" class="cls-1" d="M4240.84,1263.61a148.17,148.17,0,1,1-148.18,148.17A148.173,148.173,0,0,1,4240.84,1263.61Z"/>
  <path id="lblPD" class="cls-1" d="M4208.12,931.416a148.167,148.167,0,1,1-148.17,148.164A148.163,148.163,0,0,1,4208.12,931.416Z"/>
  <circle id="lblPC" class="cls-2" cx="3898.55" cy="948.721" r="148.17"/>
  <circle id="lblPB" class="cls-2" cx="3561.31" cy="938.639" r="148.19"/>
  <path id="lblPA" class="cls-1" d="M3281.95,979.232A148.169,148.169,0,1,1,3133.78,1127.4,148.173,148.173,0,0,1,3281.95,979.232Z"/>
  <circle id="lblSTART" class="cls-2" cx="2539.515" cy="790.172" r="148.175"/>
</svg>
